# xmcd CD database file
#
# Track frame offsets:
#	150
#	25855
#	44680
#	71627
#	90510
#	105545
#	119722
#	156245
#	186612
#
# Disc length: 2830 seconds
#
# Revision: 1
# Processed by: cddbd v1.5.1PL0 Copyright (c) Steve Scherf et al.
# Submitted via: CDex 1.50beta10
#
DISCID=800b0c09
DTITLE=Carrie and Lurrie Bell - Dynasty
DYEAR=1990
DGENRE=Blues
TTITLE0=Brought Up The Hard Way
TTITLE1=(I Shoulda Did) What My Mama Told Me
TTITLE2=The Gladys Shuffle
TTITLE3=I'll Be Your 44
TTITLE4=New Harp In Town
TTITLE5=I Need You So Bad
TTITLE6=I Don't Need No Woman
TTITLE7=As The Years Go Passing By
TTITLE8=Sail On
EXTD=YEAR: 1990
EXTT0=
EXTT1=
EXTT2=
EXTT3=
EXTT4=
EXTT5=
EXTT6=
EXTT7=
EXTT8=
PLAYORDER=
